<?xml version="1.0" encoding="UTF-8" standalone="no"?>
<svg
   width="72"
   height="72"
   viewBox="0 0 72 72"
   version="1.1"
   id="svg4"
   sodipodi:docname="dragor.svg"
   inkscape:version="1.4 (86a8ad7, 2024-10-11)"
   xmlns:inkscape="http://www.inkscape.org/namespaces/inkscape"
   xmlns:sodipodi="http://sodipodi.sourceforge.net/DTD/sodipodi-0.dtd"
   xmlns="http://www.w3.org/2000/svg"
   xmlns:svg="http://www.w3.org/2000/svg">
  <defs
     id="defs4" />
  <sodipodi:namedview
     id="namedview4"
     pagecolor="#ffffff"
     bordercolor="#000000"
     borderopacity="0.25"
     inkscape:showpageshadow="2"
     inkscape:pageopacity="0.0"
     inkscape:pagecheckerboard="0"
     inkscape:deskcolor="#d1d1d1"
     inkscape:zoom="11.208333"
     inkscape:cx="12.446097"
     inkscape:cy="35.464685"
     inkscape:window-width="1920"
     inkscape:window-height="1009"
     inkscape:window-x="-8"
     inkscape:window-y="-8"
     inkscape:window-maximized="1"
     inkscape:current-layer="g4"
     showgrid="false" />
  <g
     fill="none"
     stroke="#000000"
     stroke-linecap="round"
     stroke-linejoin="round"
     stroke-miterlimit="10"
     stroke-width="2"
     id="g4"
     transform="translate(0.80297471,1.1598511)">
    <path
       style="fill:none;fill-opacity:1;stroke:#000000;stroke-width:3.1;stroke-dasharray:none;stroke-opacity:1"
       id="path6"
       sodipodi:type="arc"
       sodipodi:cx="35.197025"
       sodipodi:cy="34.840149"
       sodipodi:rx="33.234001"
       sodipodi:ry="33.2342"
       sodipodi:start="0"
       sodipodi:end="6.2827139"
       sodipodi:arc-type="arc"
       d="M 68.431026,34.840149 A 33.234001,33.2342 0 0 1 35.200942,68.074348 33.234001,33.2342 0 0 1 1.9630251,34.847982 33.234001,33.2342 0 0 1 35.185275,1.6059515 33.234001,33.2342 0 0 1 68.431023,34.824482"
       inkscape:label="tour"
       sodipodi:open="true" />
    <path
       fill="currentColor"
       d="m 35.019894,60.10879 c -11.923101,0 -20.380343,-8.267411 -20.380343,-19.659168 0,-6.047744 3.626431,-12.562828 3.780629,-12.835642 0.314725,-0.5606 0.933099,-0.865092 1.57836,-0.793874 a 1.583994,1.583994 0 0 1 1.328479,1.164744 c 0.0095,0.03716 0.986871,3.694437 2.276602,5.725112 0.866676,1.366485 1.745211,2.332004 2.733662,3.002571 C 25.6683,33.813601 25.155886,29.451761 25.990142,24.97605 28.280186,12.690779 37.949617,9.7515213 38.364026,9.6329063 c 0.532973,-0.152615 1.098415,-0.0158 1.504075,0.353423 0.40487,0.3708657 0.589909,0.9267717 0.484738,1.4661197 -0.0158,0.08619 -1.612363,8.687304 1.77605,16.016082 0.307559,0.665771 0.73699,1.439186 1.198796,2.21334 0.131266,-1.062783 0.335283,-2.192781 0.648424,-3.289567 1.243077,-4.347654 4.457523,-5.831866 4.593533,-5.892014 0.536137,-0.244344 1.161629,-0.163686 1.625015,0.199273 a 1.5844883,1.5844883 0 0 1 0.577254,1.532447 c -0.01659,0.106754 -0.465015,3.06583 2.052817,7.262352 2.27344,3.789329 2.929771,6.245434 2.929771,10.95605 0,11.390918 -8.719726,19.658378 -20.734556,19.658378 z M 19.564413,32.649599 c -0.868255,2.189621 -1.762656,5.102686 -1.762656,7.799181 0,9.558726 7.126341,16.496076 17.217247,16.496076 10.181054,0 17.571512,-6.93735 17.571512,-16.496076 0,-4.128564 -0.510041,-6.045371 -2.479039,-9.32861 -1.315825,-2.192785 -1.965881,-4.164151 -2.276652,-5.733023 -0.313141,0.50688 -0.604091,1.126045 -0.816806,1.871733 -0.963939,3.370276 -0.721175,7.311431 -0.717963,7.351759 0.04666,0.705408 -0.382728,1.357786 -1.050131,1.594223 -0.667402,0.23644 -1.409975,0.0032 -1.819589,-0.576415 -0.118615,-0.16843 -2.931354,-4.149916 -4.171268,-6.832179 -2.574719,-5.564586 -2.531228,-11.581491 -2.268695,-15.047398 -2.605559,1.518261 -6.60602,4.909837 -7.891008,11.807649 -1.250984,6.711984 1.179815,13.423174 1.20591,13.489549 0.210344,0.547998 0.09885,1.169536 -0.287045,1.610783 -0.387475,0.43887 -0.983708,0.633351 -1.558591,0.495709 -0.196058,-0.04819 -4.647305,-1.205865 -7.528839,-5.747157 -0.514787,-0.813694 -0.97659,-1.798192 -1.366387,-2.755804"
       id="path1"
       style="stroke:#000000;stroke-width:0;stroke-opacity:1;stroke-dasharray:none" />
  </g>
</svg>
